<svg xmlns="http://www.w3.org/2000/svg" id="prefigure-124-2-2-3-figure" width="260" height="260" viewBox="0 0 260 260">
  <defs>
    <clipPath id="prefigure-124-2-2-3-__clipPath-0">
      <rect x="5.0" y="5.0" width="250.0" height="250.0"/>
    </clipPath>
    <clipPath id="prefigure-124-2-2-3-__clipPath-1">
      <rect x="5.0" y="5.0" width="250.0" height="250.0"/>
    </clipPath>
  </defs>
  <g id="prefigure-124-2-2-3-__group-0">
    <path id="prefigure-124-2-2-3-__path-0" d="M 62.7 197.3 L 198.7 61.3 L 198.7 197.3 Z" stroke="blue" stroke-width="2" fill="none" clip-path="url(#prefigure-124-2-2-3-__clipPath-1)"/>
    <path id="prefigure-124-2-2-3-__path-1" stroke="black" stroke-width="2" fill="none" d="M 198.7 91.3 L 198.4 91.3 L 198.2 91.3 L 198.0 91.3 L 197.7 91.3 L 197.5 91.3 L 197.3 91.3 L 197.0 91.3 L 196.8 91.3 L 196.6 91.3 L 196.3 91.2 L 196.1 91.2 L 195.8 91.2 L 195.6 91.2 L 195.4 91.1 L 195.1 91.1 L 194.9 91.1 L 194.7 91.1 L 194.4 91.0 L 194.2 91.0 L 194.0 91.0 L 193.7 90.9 L 193.5 90.9 L 193.3 90.8 L 193.1 90.8 L 192.8 90.8 L 192.6 90.7 L 192.4 90.7 L 192.1 90.6 L 191.9 90.6 L 191.7 90.5 L 191.4 90.4 L 191.2 90.4 L 191.0 90.3 L 190.8 90.3 L 190.5 90.2 L 190.3 90.1 L 190.1 90.1 L 189.9 90.0 L 189.6 89.9 L 189.4 89.9 L 189.2 89.8 L 189.0 89.7 L 188.7 89.6 L 188.5 89.6 L 188.3 89.5 L 188.1 89.4 L 187.8 89.3 L 187.6 89.2 L 187.4 89.1 L 187.2 89.0 L 187.0 89.0 L 186.8 88.9 L 186.5 88.8 L 186.3 88.7 L 186.1 88.6 L 185.9 88.5 L 185.7 88.4 L 185.5 88.3 L 185.3 88.2 L 185.1 88.1 L 184.8 87.9 L 184.6 87.8 L 184.4 87.7 L 184.2 87.6 L 184.0 87.5 L 183.8 87.4 L 183.6 87.3 L 183.4 87.1 L 183.2 87.0 L 183.0 86.9 L 182.8 86.8 L 182.6 86.7 L 182.4 86.5 L 182.2 86.4 L 182.0 86.3 L 181.8 86.1 L 181.6 86.0 L 181.4 85.9 L 181.2 85.7 L 181.0 85.6 L 180.8 85.5 L 180.7 85.3 L 180.5 85.2 L 180.3 85.0 L 180.1 84.9 L 179.9 84.7 L 179.7 84.6 L 179.6 84.4 L 179.4 84.3 L 179.2 84.1 L 179.0 84.0 L 178.8 83.8 L 178.7 83.7 L 178.5 83.5 L 178.3 83.4 L 178.1 83.2 L 178.0 83.0 L 177.8 82.9 L 177.6 82.7 L 177.5 82.5"/>
    <path id="prefigure-124-2-2-3-__path-2" stroke="black" stroke-width="2" fill="none" d="M 83.9 176.1 L 84.1 176.3 L 84.2 176.4 L 84.4 176.6 L 84.6 176.8 L 84.7 176.9 L 84.9 177.1 L 85.0 177.3 L 85.2 177.5 L 85.4 177.6 L 85.5 177.8 L 85.7 178.0 L 85.8 178.2 L 86.0 178.4 L 86.1 178.6 L 86.3 178.7 L 86.4 178.9 L 86.5 179.1 L 86.7 179.3 L 86.8 179.5 L 87.0 179.7 L 87.1 179.9 L 87.2 180.1 L 87.4 180.3 L 87.5 180.4 L 87.6 180.6 L 87.8 180.8 L 87.9 181.0 L 88.0 181.2 L 88.1 181.4 L 88.3 181.6 L 88.4 181.8 L 88.5 182.0 L 88.6 182.2 L 88.8 182.4 L 88.9 182.6 L 89.0 182.9 L 89.1 183.1 L 89.2 183.3 L 89.3 183.5 L 89.4 183.7 L 89.5 183.9 L 89.6 184.1 L 89.7 184.3 L 89.8 184.5 L 89.9 184.7 L 90.0 185.0 L 90.1 185.2 L 90.2 185.4 L 90.3 185.6 L 90.4 185.8 L 90.5 186.0 L 90.6 186.3 L 90.7 186.5 L 90.8 186.7 L 90.8 186.9 L 90.9 187.1 L 91.0 187.4 L 91.1 187.6 L 91.2 187.8 L 91.2 188.0 L 91.3 188.3 L 91.4 188.5 L 91.4 188.7 L 91.5 188.9 L 91.6 189.2 L 91.6 189.4 L 91.7 189.6 L 91.7 189.8 L 91.8 190.1 L 91.9 190.3 L 91.9 190.5 L 92.0 190.8 L 92.0 191.0 L 92.1 191.2 L 92.1 191.5 L 92.2 191.7 L 92.2 191.9 L 92.2 192.1 L 92.3 192.4 L 92.3 192.6 L 92.4 192.8 L 92.4 193.1 L 92.4 193.3 L 92.5 193.5 L 92.5 193.8 L 92.5 194.0 L 92.5 194.2 L 92.6 194.5 L 92.6 194.7 L 92.6 195.0 L 92.6 195.2 L 92.6 195.4 L 92.6 195.7 L 92.7 195.9 L 92.7 196.1 L 92.7 196.4 L 92.7 196.6 L 92.7 196.8 L 92.7 197.1 L 92.7 197.3"/>
    <path id="prefigure-124-2-2-3-__path-3" stroke="black" stroke-width="2" fill="none" d="M 198.7 180.3 L 181.7 180.3 L 181.7 197.3"/>
  </g>
  <g id="prefigure-124-2-2-3-__label-0" transform="translate(130.7,201.3) translate(-5.2,-0.0)">
    <g id="prefigure-124-2-2-3-__g-2">
      <svg xmlns:xlink="http://www.w3.org/1999/xlink" style="vertical-align: -0.200px" width="10.352px" height="8.200px" role="img" focusable="false" viewBox="0 -442 572 453" x="0.0" y="0.0">
        <defs>
          <path id="prefigure-124-2-2-3-MJX-2-TEX-I-1D465" d="M52 289Q59 331 106 386T222 442Q257 442 286 424T329 379Q371 442 430 442Q467 442 494 420T522 361Q522 332 508 314T481 292T458 288Q439 288 427 299T415 328Q415 374 465 391Q454 404 425 404Q412 404 406 402Q368 386 350 336Q290 115 290 78Q290 50 306 38T341 26Q378 26 414 59T463 140Q466 150 469 151T485 153H489Q504 153 504 145Q504 144 502 134Q486 77 440 33T333 -11Q263 -11 227 52Q186 -10 133 -10H127Q78 -10 57 16T35 71Q35 103 54 123T99 143Q142 143 142 101Q142 81 130 66T107 46T94 41L91 40Q91 39 97 36T113 29T132 26Q168 26 194 71Q203 87 217 139T245 247T261 313Q266 340 266 352Q266 380 251 392T217 404Q177 404 142 372T93 290Q91 281 88 280T72 278H58Q52 284 52 289Z"/>
        </defs>
        <g stroke="currentColor" fill="currentColor" stroke-width="0" transform="scale(1,-1)">
          <g data-mml-node="math">
            <g data-mml-node="mi" data-semantic-type="identifier" data-semantic-role="latinletter" data-semantic-font="italic" data-semantic-annotation="clearspeak:simple" data-semantic-id="0" data-semantic-speech="x">
              <use data-c="1D465" xlink:href="#prefigure-124-2-2-3-MJX-2-TEX-I-1D465"/>
            </g>
          </g>
        </g>
      </svg>
    </g>
  </g>
  <g id="prefigure-124-2-2-3-__label-1" transform="translate(202.7,129.3) translate(0.0,-5.9)">
    <g id="prefigure-124-2-2-3-__g-3">
      <svg xmlns:xlink="http://www.w3.org/1999/xlink" style="vertical-align: -3.712px" width="8.872px" height="11.712px" role="img" focusable="false" viewBox="0 -442 490 647" x="0.0" y="0.0">
        <defs>
          <path id="prefigure-124-2-2-3-MJX-3-TEX-I-1D466" d="M21 287Q21 301 36 335T84 406T158 442Q199 442 224 419T250 355Q248 336 247 334Q247 331 231 288T198 191T182 105Q182 62 196 45T238 27Q261 27 281 38T312 61T339 94Q339 95 344 114T358 173T377 247Q415 397 419 404Q432 431 462 431Q475 431 483 424T494 412T496 403Q496 390 447 193T391 -23Q363 -106 294 -155T156 -205Q111 -205 77 -183T43 -117Q43 -95 50 -80T69 -58T89 -48T106 -45Q150 -45 150 -87Q150 -107 138 -122T115 -142T102 -147L99 -148Q101 -153 118 -160T152 -167H160Q177 -167 186 -165Q219 -156 247 -127T290 -65T313 -9T321 21L315 17Q309 13 296 6T270 -6Q250 -11 231 -11Q185 -11 150 11T104 82Q103 89 103 113Q103 170 138 262T173 379Q173 380 173 381Q173 390 173 393T169 400T158 404H154Q131 404 112 385T82 344T65 302T57 280Q55 278 41 278H27Q21 284 21 287Z"/>
        </defs>
        <g stroke="currentColor" fill="currentColor" stroke-width="0" transform="scale(1,-1)">
          <g data-mml-node="math">
            <g data-mml-node="mi" data-semantic-type="identifier" data-semantic-role="latinletter" data-semantic-font="italic" data-semantic-annotation="clearspeak:simple" data-semantic-id="0" data-semantic-speech="y">
              <use data-c="1D466" xlink:href="#prefigure-124-2-2-3-MJX-3-TEX-I-1D466"/>
            </g>
          </g>
        </g>
      </svg>
    </g>
  </g>
  <g id="prefigure-124-2-2-3-__label-2" transform="translate(126.7,125.3) translate(-9.0,-12.1)">
    <g id="prefigure-124-2-2-3-__g-4">
      <svg xmlns:xlink="http://www.w3.org/1999/xlink" style="vertical-align: 0.000px" width="9.048px" height="12.056px" role="img" focusable="false" viewBox="0 -666 500 666" x="0.0" y="0.0">
        <defs>
          <path id="prefigure-124-2-2-3-MJX-4-TEX-N-31" d="M213 578L200 573Q186 568 160 563T102 556H83V602H102Q149 604 189 617T245 641T273 663Q275 666 285 666Q294 666 302 660V361L303 61Q310 54 315 52T339 48T401 46H427V0H416Q395 3 257 3Q121 3 100 0H88V46H114Q136 46 152 46T177 47T193 50T201 52T207 57T213 61V578Z"/>
        </defs>
        <g stroke="currentColor" fill="currentColor" stroke-width="0" transform="scale(1,-1)">
          <g data-mml-node="math">
            <g data-mml-node="mn" data-semantic-type="number" data-semantic-role="integer" data-semantic-font="normal" data-semantic-annotation="clearspeak:simple" data-semantic-id="0" data-semantic-speech="1">
              <use data-c="31" xlink:href="#prefigure-124-2-2-3-MJX-4-TEX-N-31"/>
            </g>
          </g>
        </g>
      </svg>
    </g>
  </g>
  <g id="prefigure-124-2-2-3-__g-0">
    <g id="prefigure-124-2-2-3-__label-3" transform="translate(193.2,99.0) translate(-26.0,-0.0)">
      <g id="prefigure-124-2-2-3-__g-5">
        <svg xmlns:xlink="http://www.w3.org/1999/xlink" style="vertical-align: -0.400px" width="26.000px" height="13.392px" role="img" focusable="false" viewBox="0 -718 1436.6 740" x="0.0" y="0.0">
          <defs>
            <path id="prefigure-124-2-2-3-MJX-5-TEX-N-34" d="M462 0Q444 3 333 3Q217 3 199 0H190V46H221Q241 46 248 46T265 48T279 53T286 61Q287 63 287 115V165H28V211L179 442Q332 674 334 675Q336 677 355 677H373L379 671V211H471V165H379V114Q379 73 379 66T385 54Q393 47 442 46H471V0H462ZM293 211V545L74 212L183 211H293Z"/>
            <path id="prefigure-124-2-2-3-MJX-5-TEX-N-35" d="M164 157Q164 133 148 117T109 101H102Q148 22 224 22Q294 22 326 82Q345 115 345 210Q345 313 318 349Q292 382 260 382H254Q176 382 136 314Q132 307 129 306T114 304Q97 304 95 310Q93 314 93 485V614Q93 664 98 664Q100 666 102 666Q103 666 123 658T178 642T253 634Q324 634 389 662Q397 666 402 666Q410 666 410 648V635Q328 538 205 538Q174 538 149 544L139 546V374Q158 388 169 396T205 412T256 420Q337 420 393 355T449 201Q449 109 385 44T229 -22Q148 -22 99 32T50 154Q50 178 61 192T84 210T107 214Q132 214 148 197T164 157Z"/>
            <path id="prefigure-124-2-2-3-MJX-5-TEX-N-2218" d="M55 251Q55 328 112 386T249 444T386 388T444 249Q444 171 388 113T250 55Q170 55 113 112T55 251ZM245 403Q188 403 142 361T96 250Q96 183 141 140T250 96Q284 96 313 109T354 135T375 160Q403 197 403 250Q403 313 360 358T245 403Z"/>
          </defs>
          <g stroke="currentColor" fill="currentColor" stroke-width="0" transform="scale(1,-1)">
            <g data-mml-node="math">
              <g data-mml-node="msup" data-semantic-type="superscript" data-semantic-role="integer" data-semantic-id="2" data-semantic-children="0,1" data-semantic-speech="45 Superscript ring">
                <g data-mml-node="mn" data-semantic-type="number" data-semantic-role="integer" data-semantic-font="normal" data-semantic-annotation="clearspeak:simple" data-semantic-id="0" data-semantic-parent="2" data-semantic-speech="45" data-semantic-prefix="Base">
                  <use data-c="34" xlink:href="#prefigure-124-2-2-3-MJX-5-TEX-N-34"/>
                  <use data-c="35" xlink:href="#prefigure-124-2-2-3-MJX-5-TEX-N-35" transform="translate(500,0)"/>
                </g>
                <g data-mml-node="mo" transform="translate(1033,404.1) scale(0.707)" data-semantic-type="operator" data-semantic-role="multiplication" data-semantic-id="1" data-semantic-parent="2" data-semantic-speech="ring" data-semantic-prefix="Exponent">
                  <use data-c="2218" xlink:href="#prefigure-124-2-2-3-MJX-5-TEX-N-2218"/>
                </g>
              </g>
            </g>
          </g>
        </svg>
      </g>
    </g>
    <path stroke="black" stroke-width="2" fill="none" d="M 198.7 91.3 L 198.4 91.3 L 198.2 91.3 L 198.0 91.3 L 197.7 91.3 L 197.5 91.3 L 197.3 91.3 L 197.0 91.3 L 196.8 91.3 L 196.6 91.3 L 196.3 91.2 L 196.1 91.2 L 195.9 91.2 L 195.6 91.2 L 195.4 91.1 L 195.1 91.1 L 194.9 91.1 L 194.7 91.1 L 194.4 91.0 L 194.2 91.0 L 194.0 91.0 L 193.7 90.9 L 193.5 90.9 L 193.3 90.8 L 193.1 90.8 L 192.8 90.7 L 192.6 90.7 L 192.4 90.7 L 192.1 90.6 L 191.9 90.6 L 191.7 90.5 L 191.4 90.4 L 191.2 90.4 L 191.0 90.3 L 190.8 90.3 L 190.5 90.2 L 190.3 90.1 L 190.1 90.1 L 189.9 90.0 L 189.6 89.9 L 189.4 89.9 L 189.2 89.8 L 189.0 89.7 L 188.7 89.6 L 188.5 89.6 L 188.3 89.5 L 188.1 89.4 L 187.9 89.3 L 187.6 89.2 L 187.4 89.1 L 187.2 89.0 L 187.0 89.0 L 186.8 88.9 L 186.5 88.8 L 186.3 88.7 L 186.1 88.6 L 185.9 88.5 L 185.7 88.4 L 185.5 88.3 L 185.3 88.2 L 185.1 88.1 L 184.8 87.9 L 184.6 87.8 L 184.4 87.7 L 184.2 87.6 L 184.0 87.5 L 183.8 87.4 L 183.6 87.3 L 183.4 87.1 L 183.2 87.0 L 183.0 86.9 L 182.8 86.8 L 182.6 86.7 L 182.4 86.5 L 182.2 86.4 L 182.0 86.3 L 181.8 86.1 L 181.6 86.0 L 181.4 85.9 L 181.2 85.7 L 181.0 85.6 L 180.9 85.5 L 180.7 85.3 L 180.5 85.2 L 180.3 85.0 L 180.1 84.9 L 179.9 84.7 L 179.7 84.6 L 179.6 84.4 L 179.4 84.3 L 179.2 84.1 L 179.0 84.0 L 178.8 83.8 L 178.7 83.7 L 178.5 83.5 L 178.3 83.4 L 178.1 83.2 L 178.0 83.0 L 177.8 82.9 L 177.6 82.7 L 177.5 82.5"/>
  </g>
  <g id="prefigure-124-2-2-3-__g-1">
    <g id="prefigure-124-2-2-3-__label-4" transform="translate(95.4,187.8) translate(0.0,-13.4)">
      <g id="prefigure-124-2-2-3-__g-6">
        <svg xmlns:xlink="http://www.w3.org/1999/xlink" style="vertical-align: -0.400px" width="26.000px" height="13.392px" role="img" focusable="false" viewBox="0 -718 1436.6 740" x="0.0" y="0.0">
          <defs>
            <path id="prefigure-124-2-2-3-MJX-6-TEX-N-34" d="M462 0Q444 3 333 3Q217 3 199 0H190V46H221Q241 46 248 46T265 48T279 53T286 61Q287 63 287 115V165H28V211L179 442Q332 674 334 675Q336 677 355 677H373L379 671V211H471V165H379V114Q379 73 379 66T385 54Q393 47 442 46H471V0H462ZM293 211V545L74 212L183 211H293Z"/>
            <path id="prefigure-124-2-2-3-MJX-6-TEX-N-35" d="M164 157Q164 133 148 117T109 101H102Q148 22 224 22Q294 22 326 82Q345 115 345 210Q345 313 318 349Q292 382 260 382H254Q176 382 136 314Q132 307 129 306T114 304Q97 304 95 310Q93 314 93 485V614Q93 664 98 664Q100 666 102 666Q103 666 123 658T178 642T253 634Q324 634 389 662Q397 666 402 666Q410 666 410 648V635Q328 538 205 538Q174 538 149 544L139 546V374Q158 388 169 396T205 412T256 420Q337 420 393 355T449 201Q449 109 385 44T229 -22Q148 -22 99 32T50 154Q50 178 61 192T84 210T107 214Q132 214 148 197T164 157Z"/>
            <path id="prefigure-124-2-2-3-MJX-6-TEX-N-2218" d="M55 251Q55 328 112 386T249 444T386 388T444 249Q444 171 388 113T250 55Q170 55 113 112T55 251ZM245 403Q188 403 142 361T96 250Q96 183 141 140T250 96Q284 96 313 109T354 135T375 160Q403 197 403 250Q403 313 360 358T245 403Z"/>
          </defs>
          <g stroke="currentColor" fill="currentColor" stroke-width="0" transform="scale(1,-1)">
            <g data-mml-node="math">
              <g data-mml-node="msup" data-semantic-type="superscript" data-semantic-role="integer" data-semantic-id="2" data-semantic-children="0,1" data-semantic-speech="45 Superscript ring">
                <g data-mml-node="mn" data-semantic-type="number" data-semantic-role="integer" data-semantic-font="normal" data-semantic-annotation="clearspeak:simple" data-semantic-id="0" data-semantic-parent="2" data-semantic-speech="45" data-semantic-prefix="Base">
                  <use data-c="34" xlink:href="#prefigure-124-2-2-3-MJX-6-TEX-N-34"/>
                  <use data-c="35" xlink:href="#prefigure-124-2-2-3-MJX-6-TEX-N-35" transform="translate(500,0)"/>
                </g>
                <g data-mml-node="mo" transform="translate(1033,404.1) scale(0.707)" data-semantic-type="operator" data-semantic-role="multiplication" data-semantic-id="1" data-semantic-parent="2" data-semantic-speech="ring" data-semantic-prefix="Exponent">
                  <use data-c="2218" xlink:href="#prefigure-124-2-2-3-MJX-6-TEX-N-2218"/>
                </g>
              </g>
            </g>
          </g>
        </svg>
      </g>
    </g>
    <path stroke="black" stroke-width="2" fill="none" d="M 83.9 176.1 L 84.1 176.3 L 84.2 176.4 L 84.4 176.6 L 84.6 176.8 L 84.7 176.9 L 84.9 177.1 L 85.0 177.3 L 85.2 177.5 L 85.4 177.6 L 85.5 177.8 L 85.7 178.0 L 85.8 178.2 L 86.0 178.4 L 86.1 178.6 L 86.3 178.7 L 86.4 178.9 L 86.5 179.1 L 86.7 179.3 L 86.8 179.5 L 87.0 179.7 L 87.1 179.9 L 87.2 180.1 L 87.4 180.3 L 87.5 180.4 L 87.6 180.6 L 87.8 180.8 L 87.9 181.0 L 88.0 181.2 L 88.1 181.4 L 88.3 181.6 L 88.4 181.8 L 88.5 182.0 L 88.6 182.2 L 88.8 182.4 L 88.9 182.6 L 89.0 182.9 L 89.1 183.1 L 89.2 183.3 L 89.3 183.5 L 89.4 183.7 L 89.5 183.9 L 89.6 184.1 L 89.7 184.3 L 89.8 184.5 L 89.9 184.7 L 90.0 185.0 L 90.1 185.2 L 90.2 185.4 L 90.3 185.6 L 90.4 185.8 L 90.5 186.0 L 90.6 186.3 L 90.7 186.5 L 90.8 186.7 L 90.8 186.9 L 90.9 187.1 L 91.0 187.4 L 91.1 187.6 L 91.2 187.8 L 91.2 188.0 L 91.3 188.3 L 91.4 188.5 L 91.4 188.7 L 91.5 188.9 L 91.6 189.2 L 91.6 189.4 L 91.7 189.6 L 91.7 189.8 L 91.8 190.1 L 91.9 190.3 L 91.9 190.5 L 92.0 190.8 L 92.0 191.0 L 92.1 191.2 L 92.1 191.5 L 92.2 191.7 L 92.2 191.9 L 92.2 192.1 L 92.3 192.4 L 92.3 192.6 L 92.4 192.8 L 92.4 193.1 L 92.4 193.3 L 92.5 193.5 L 92.5 193.8 L 92.5 194.0 L 92.5 194.2 L 92.6 194.5 L 92.6 194.7 L 92.6 195.0 L 92.6 195.2 L 92.6 195.4 L 92.6 195.7 L 92.7 195.9 L 92.7 196.1 L 92.7 196.4 L 92.7 196.6 L 92.7 196.8 L 92.7 197.1 L 92.7 197.3"/>
  </g>
</svg>
