<svg xmlns="http://www.w3.org/2000/svg" id="prefigure-1-9-3-figure" width="310" height="190" viewBox="0 0 310 190">
  <defs>
    <clipPath id="prefigure-1-9-3-__clipPath-0">
      <rect x="5.0" y="5.0" width="300.0" height="180.0"/>
    </clipPath>
    <clipPath id="prefigure-1-9-3-__clipPath-1">
      <rect x="5.0" y="5.0" width="300.0" height="180.0"/>
    </clipPath>
  </defs>
  <g id="prefigure-1-9-3-grid-axes">
    <g id="prefigure-1-9-3-grid" stroke="#ccc" stroke-width="1">
      <line x1="5.0" y1="185.0" x2="5.0" y2="5.0"/>
      <line x1="47.9" y1="185.0" x2="47.9" y2="5.0"/>
      <line x1="90.7" y1="185.0" x2="90.7" y2="5.0"/>
      <line x1="133.6" y1="185.0" x2="133.6" y2="5.0"/>
      <line x1="176.4" y1="185.0" x2="176.4" y2="5.0"/>
      <line x1="219.3" y1="185.0" x2="219.3" y2="5.0"/>
      <line x1="262.1" y1="185.0" x2="262.1" y2="5.0"/>
      <line x1="305.0" y1="185.0" x2="305.0" y2="5.0"/>
      <line x1="5.0" y1="185.0" x2="305.0" y2="185.0"/>
      <line x1="5.0" y1="159.3" x2="305.0" y2="159.3"/>
      <line x1="5.0" y1="133.6" x2="305.0" y2="133.6"/>
      <line x1="5.0" y1="107.9" x2="305.0" y2="107.9"/>
      <line x1="5.0" y1="82.1" x2="305.0" y2="82.1"/>
      <line x1="5.0" y1="56.4" x2="305.0" y2="56.4"/>
      <line x1="5.0" y1="30.7" x2="305.0" y2="30.7"/>
      <line x1="5.0" y1="5.0" x2="305.0" y2="5.0"/>
    </g>
    <g id="prefigure-1-9-3-axes" stroke="black" stroke-width="2">
      <line id="prefigure-1-9-3-__line-16" x1="5.0" y1="133.6" x2="305.0" y2="133.6" stroke="black" stroke-width="2"/>
      <g>
        <line id="prefigure-1-9-3-__line-17" x1="47.9" y1="136.6" x2="47.9" y2="130.6"/>
        <line id="prefigure-1-9-3-__line-18" x1="219.3" y1="136.6" x2="219.3" y2="130.6"/>
      </g>
      <line id="prefigure-1-9-3-__line-19" x1="133.6" y1="185.0" x2="133.6" y2="5.0" stroke="black" stroke-width="2"/>
      <g>
        <line id="prefigure-1-9-3-__line-20" x1="130.6" y1="82.1" x2="136.6" y2="82.1"/>
        <line id="prefigure-1-9-3-__line-21" x1="130.6" y1="30.7" x2="136.6" y2="30.7"/>
      </g>
    </g>
    <g id="prefigure-1-9-3-__label-0" transform="translate(137.6,9.0) translate(0.0,-0.0)">
      <g id="prefigure-1-9-3-__g-0">
        <svg xmlns:xlink="http://www.w3.org/1999/xlink" style="vertical-align: -4.528px" width="33.064px" height="18.096px" role="img" focusable="false" viewBox="0 -750 1827 1000" x="0.0" y="0.0">
          <defs>
            <path id="prefigure-1-9-3-MJX-2-TEX-I-1D454" d="M311 43Q296 30 267 15T206 0Q143 0 105 45T66 160Q66 265 143 353T314 442Q361 442 401 394L404 398Q406 401 409 404T418 412T431 419T447 422Q461 422 470 413T480 394Q480 379 423 152T363 -80Q345 -134 286 -169T151 -205Q10 -205 10 -137Q10 -111 28 -91T74 -71Q89 -71 102 -80T116 -111Q116 -121 114 -130T107 -144T99 -154T92 -162L90 -164H91Q101 -167 151 -167Q189 -167 211 -155Q234 -144 254 -122T282 -75Q288 -56 298 -13Q311 35 311 43ZM384 328L380 339Q377 350 375 354T369 368T359 382T346 393T328 402T306 405Q262 405 221 352Q191 313 171 233T151 117Q151 38 213 38Q269 38 323 108L331 118L384 328Z"/>
            <path id="prefigure-1-9-3-MJX-2-TEX-N-2061" d=""/>
            <path id="prefigure-1-9-3-MJX-2-TEX-N-28" d="M94 250Q94 319 104 381T127 488T164 576T202 643T244 695T277 729T302 750H315H319Q333 750 333 741Q333 738 316 720T275 667T226 581T184 443T167 250T184 58T225 -81T274 -167T316 -220T333 -241Q333 -250 318 -250H315H302L274 -226Q180 -141 137 -14T94 250Z"/>
            <path id="prefigure-1-9-3-MJX-2-TEX-I-1D465" d="M52 289Q59 331 106 386T222 442Q257 442 286 424T329 379Q371 442 430 442Q467 442 494 420T522 361Q522 332 508 314T481 292T458 288Q439 288 427 299T415 328Q415 374 465 391Q454 404 425 404Q412 404 406 402Q368 386 350 336Q290 115 290 78Q290 50 306 38T341 26Q378 26 414 59T463 140Q466 150 469 151T485 153H489Q504 153 504 145Q504 144 502 134Q486 77 440 33T333 -11Q263 -11 227 52Q186 -10 133 -10H127Q78 -10 57 16T35 71Q35 103 54 123T99 143Q142 143 142 101Q142 81 130 66T107 46T94 41L91 40Q91 39 97 36T113 29T132 26Q168 26 194 71Q203 87 217 139T245 247T261 313Q266 340 266 352Q266 380 251 392T217 404Q177 404 142 372T93 290Q91 281 88 280T72 278H58Q52 284 52 289Z"/>
            <path id="prefigure-1-9-3-MJX-2-TEX-N-29" d="M60 749L64 750Q69 750 74 750H86L114 726Q208 641 251 514T294 250Q294 182 284 119T261 12T224 -76T186 -143T145 -194T113 -227T90 -246Q87 -249 86 -250H74Q66 -250 63 -250T58 -247T55 -238Q56 -237 66 -225Q221 -64 221 250T66 725Q56 737 55 738Q55 746 60 749Z"/>
          </defs>
          <g stroke="currentColor" fill="currentColor" stroke-width="0" transform="scale(1,-1)">
            <g data-mml-node="math" data-semantic-type="appl" data-semantic-role="simple function" data-semantic-annotation="clearspeak:simple" data-semantic-id="6" data-semantic-children="0,4" data-semantic-content="5,0" data-semantic-speech="g left parenthesis x right parenthesis">
              <g data-mml-node="mi" data-semantic-type="identifier" data-semantic-role="simple function" data-semantic-font="italic" data-semantic-annotation="clearspeak:simple" data-semantic-id="0" data-semantic-parent="6" data-semantic-operator="appl" data-semantic-speech="g">
                <use data-c="1D454" xlink:href="#prefigure-1-9-3-MJX-2-TEX-I-1D454"/>
              </g>
              <g data-mml-node="mo" data-semantic-type="punctuation" data-semantic-role="application" data-semantic-id="5" data-semantic-parent="6" data-semantic-added="true" data-semantic-operator="appl" data-semantic-speech="of" transform="translate(477,0)">
                <use data-c="2061" xlink:href="#prefigure-1-9-3-MJX-2-TEX-N-2061"/>
              </g>
              <g data-mml-node="mrow" data-semantic-type="fenced" data-semantic-role="leftright" data-semantic-id="4" data-semantic-children="2" data-semantic-content="1,3" data-semantic-parent="6" data-semantic-speech="left parenthesis x right parenthesis" transform="translate(477,0)">
                <g data-mml-node="mo" data-semantic-type="fence" data-semantic-role="open" data-semantic-id="1" data-semantic-parent="4" data-semantic-operator="fenced" data-semantic-speech="left parenthesis">
                  <use data-c="28" xlink:href="#prefigure-1-9-3-MJX-2-TEX-N-28"/>
                </g>
                <g data-mml-node="mi" data-semantic-type="identifier" data-semantic-role="latinletter" data-semantic-font="italic" data-semantic-annotation="clearspeak:simple" data-semantic-id="2" data-semantic-parent="4" data-semantic-speech="x" transform="translate(389,0)">
                  <use data-c="1D465" xlink:href="#prefigure-1-9-3-MJX-2-TEX-I-1D465"/>
                </g>
                <g data-mml-node="mo" data-semantic-type="fence" data-semantic-role="close" data-semantic-id="3" data-semantic-parent="4" data-semantic-operator="fenced" data-semantic-speech="right parenthesis" transform="translate(961,0)">
                  <use data-c="29" xlink:href="#prefigure-1-9-3-MJX-2-TEX-N-29"/>
                </g>
              </g>
            </g>
          </g>
        </svg>
      </g>
    </g>
    <g id="prefigure-1-9-3-__label-1" transform="translate(47.9,144.6) translate(-7.5,-0.0)">
      <g id="prefigure-1-9-3-__g-1">
        <svg xmlns:xlink="http://www.w3.org/1999/xlink" style="vertical-align: 0.000px" width="15.080px" height="12.056px" role="img" focusable="false" viewBox="0 -666 833 666" x="0.0" y="0.0">
          <defs>
            <path id="prefigure-1-9-3-MJX-3-TEX-N-2D" d="M11 179V252H277V179H11Z"/>
            <path id="prefigure-1-9-3-MJX-3-TEX-N-32" d="M109 429Q82 429 66 447T50 491Q50 562 103 614T235 666Q326 666 387 610T449 465Q449 422 429 383T381 315T301 241Q265 210 201 149L142 93L218 92Q375 92 385 97Q392 99 409 186V189H449V186Q448 183 436 95T421 3V0H50V19V31Q50 38 56 46T86 81Q115 113 136 137Q145 147 170 174T204 211T233 244T261 278T284 308T305 340T320 369T333 401T340 431T343 464Q343 527 309 573T212 619Q179 619 154 602T119 569T109 550Q109 549 114 549Q132 549 151 535T170 489Q170 464 154 447T109 429Z"/>
          </defs>
          <g stroke="currentColor" fill="currentColor" stroke-width="0" transform="scale(1,-1)">
            <g data-mml-node="math">
              <g data-mml-node="mtext" data-semantic-type="text" data-semantic-role="unknown" data-semantic-font="normal" data-semantic-annotation="clearspeak:unit" data-semantic-id="0" data-semantic-speech="hyphen 2">
                <use data-c="2D" xlink:href="#prefigure-1-9-3-MJX-3-TEX-N-2D"/>
                <use data-c="32" xlink:href="#prefigure-1-9-3-MJX-3-TEX-N-32" transform="translate(333,0)"/>
              </g>
            </g>
          </g>
        </svg>
      </g>
    </g>
    <g id="prefigure-1-9-3-__label-2" transform="translate(219.3,144.6) translate(-4.5,-0.0)">
      <g id="prefigure-1-9-3-__g-2">
        <svg xmlns:xlink="http://www.w3.org/1999/xlink" style="vertical-align: 0.000px" width="9.048px" height="12.056px" role="img" focusable="false" viewBox="0 -666 500 666" x="0.0" y="0.0">
          <defs>
            <path id="prefigure-1-9-3-MJX-4-TEX-N-32" d="M109 429Q82 429 66 447T50 491Q50 562 103 614T235 666Q326 666 387 610T449 465Q449 422 429 383T381 315T301 241Q265 210 201 149L142 93L218 92Q375 92 385 97Q392 99 409 186V189H449V186Q448 183 436 95T421 3V0H50V19V31Q50 38 56 46T86 81Q115 113 136 137Q145 147 170 174T204 211T233 244T261 278T284 308T305 340T320 369T333 401T340 431T343 464Q343 527 309 573T212 619Q179 619 154 602T119 569T109 550Q109 549 114 549Q132 549 151 535T170 489Q170 464 154 447T109 429Z"/>
          </defs>
          <g stroke="currentColor" fill="currentColor" stroke-width="0" transform="scale(1,-1)">
            <g data-mml-node="math">
              <g data-mml-node="mtext" data-semantic-type="text" data-semantic-role="integer" data-semantic-font="normal" data-semantic-annotation="clearspeak:unit" data-semantic-id="0" data-semantic-speech="2">
                <use data-c="32" xlink:href="#prefigure-1-9-3-MJX-4-TEX-N-32"/>
              </g>
            </g>
          </g>
        </svg>
      </g>
    </g>
    <g id="prefigure-1-9-3-__label-3" transform="translate(122.6,82.1) translate(-9.0,-6.0)">
      <g id="prefigure-1-9-3-__g-3">
        <svg xmlns:xlink="http://www.w3.org/1999/xlink" style="vertical-align: 0.000px" width="9.048px" height="12.056px" role="img" focusable="false" viewBox="0 -666 500 666" x="0.0" y="0.0">
          <defs>
            <path id="prefigure-1-9-3-MJX-5-TEX-N-32" d="M109 429Q82 429 66 447T50 491Q50 562 103 614T235 666Q326 666 387 610T449 465Q449 422 429 383T381 315T301 241Q265 210 201 149L142 93L218 92Q375 92 385 97Q392 99 409 186V189H449V186Q448 183 436 95T421 3V0H50V19V31Q50 38 56 46T86 81Q115 113 136 137Q145 147 170 174T204 211T233 244T261 278T284 308T305 340T320 369T333 401T340 431T343 464Q343 527 309 573T212 619Q179 619 154 602T119 569T109 550Q109 549 114 549Q132 549 151 535T170 489Q170 464 154 447T109 429Z"/>
          </defs>
          <g stroke="currentColor" fill="currentColor" stroke-width="0" transform="scale(1,-1)">
            <g data-mml-node="math">
              <g data-mml-node="mtext" data-semantic-type="text" data-semantic-role="integer" data-semantic-font="normal" data-semantic-annotation="clearspeak:unit" data-semantic-id="0" data-semantic-speech="2">
                <use data-c="32" xlink:href="#prefigure-1-9-3-MJX-5-TEX-N-32"/>
              </g>
            </g>
          </g>
        </svg>
      </g>
    </g>
    <g id="prefigure-1-9-3-__label-4" transform="translate(122.6,30.7) translate(-9.0,-6.1)">
      <g id="prefigure-1-9-3-__g-4">
        <svg xmlns:xlink="http://www.w3.org/1999/xlink" style="vertical-align: 0.000px" width="9.048px" height="12.256px" role="img" focusable="false" viewBox="0 -677 500 677" x="0.0" y="0.0">
          <defs>
            <path id="prefigure-1-9-3-MJX-6-TEX-N-34" d="M462 0Q444 3 333 3Q217 3 199 0H190V46H221Q241 46 248 46T265 48T279 53T286 61Q287 63 287 115V165H28V211L179 442Q332 674 334 675Q336 677 355 677H373L379 671V211H471V165H379V114Q379 73 379 66T385 54Q393 47 442 46H471V0H462ZM293 211V545L74 212L183 211H293Z"/>
          </defs>
          <g stroke="currentColor" fill="currentColor" stroke-width="0" transform="scale(1,-1)">
            <g data-mml-node="math">
              <g data-mml-node="mtext" data-semantic-type="text" data-semantic-role="integer" data-semantic-font="normal" data-semantic-annotation="clearspeak:unit" data-semantic-id="0" data-semantic-speech="4">
                <use data-c="34" xlink:href="#prefigure-1-9-3-MJX-6-TEX-N-34"/>
              </g>
            </g>
          </g>
        </svg>
      </g>
    </g>
  </g>
  <path id="prefigure-1-9-3-__path-0" stroke="blue" stroke-width="2" fill="none" d="M 5.0 262.1 L 6.7 256.0 L 8.4 250.0 L 10.1 244.0 L 11.9 238.1 L 13.6 232.3 L 15.3 226.6 L 17.0 221.0 L 18.7 215.4 L 20.4 209.9 L 22.1 204.5 L 23.9 199.2 L 25.6 194.0 L 27.3 188.9 L 29.0 183.8 L 30.7 178.8 L 32.4 173.9 L 34.1 169.1 L 35.9 164.4 L 37.6 159.7 L 39.3 155.2 L 41.0 150.7 L 42.7 146.3 L 44.4 142.0 L 46.1 137.7 L 47.9 133.6 L 49.6 129.5 L 51.3 125.5 L 53.0 121.6 L 54.7 117.8 L 56.4 114.0 L 58.1 110.4 L 59.9 106.8 L 61.6 103.3 L 63.3 99.9 L 65.0 96.5 L 66.7 93.3 L 68.4 90.1 L 70.1 87.0 L 71.9 84.0 L 73.6 81.1 L 75.3 78.3 L 77.0 75.5 L 78.7 72.8 L 80.4 70.3 L 82.1 67.7 L 83.9 65.3 L 85.6 63.0 L 87.3 60.7 L 89.0 58.5 L 90.7 56.4 L 92.4 54.4 L 94.1 52.5 L 95.9 50.6 L 97.6 48.9 L 99.3 47.2 L 101.0 45.6 L 102.7 44.0 L 104.4 42.6 L 106.1 41.2 L 107.9 40.0 L 109.6 38.8 L 111.3 37.7 L 113.0 36.6 L 114.7 35.7 L 116.4 34.8 L 118.1 34.0 L 119.9 33.3 L 121.6 32.7 L 123.3 32.2 L 125.0 31.7 L 126.7 31.4 L 128.4 31.1 L 130.1 30.9 L 131.9 30.8 L 133.6 30.7 L 135.3 30.8 L 137.0 30.9 L 138.7 31.1 L 140.4 31.4 L 142.1 31.7 L 143.9 32.2 L 145.6 32.7 L 147.3 33.3 L 149.0 34.0 L 150.7 34.8 L 152.4 35.7 L 154.1 36.6 L 155.9 37.7 L 157.6 38.8 L 159.3 40.0 L 161.0 41.2 L 162.7 42.6 L 164.4 44.0 L 166.1 45.6 L 167.9 47.2 L 169.6 48.9 L 171.3 50.6 L 173.0 52.5 L 174.7 54.4 L 176.4 56.4" clip-path="url(#prefigure-1-9-3-__clipPath-1)"/>
  <circle id="prefigure-1-9-3-__circle-0" cx="176.4" cy="56.4" r="4" stroke="black" stroke-width="2" fill="blue"/>
  <circle id="prefigure-1-9-3-__circle-1" cx="133.6" cy="107.9" r="4" stroke="black" stroke-width="2" fill="blue"/>
  <circle id="prefigure-1-9-3-__circle-2" cx="133.6" cy="30.7" r="4" stroke="black" stroke-width="2" fill="white"/>
  <line id="prefigure-1-9-3-__line-22" x1="176.4" y1="82.1" x2="305.0" y2="159.3" stroke="blue" stroke-width="2" fill="none"/>
  <circle id="prefigure-1-9-3-__circle-3" cx="176.4" cy="82.1" r="4" stroke="black" stroke-width="2" fill="white"/>
  <circle id="prefigure-1-9-3-__circle-4" cx="219.3" cy="107.9" r="4" stroke="black" stroke-width="2" fill="white"/>
</svg>
